HIERARCHY
ROOT Hip
{
    OFFSET 0.0 0.0 0.0
    CHANNELS 6 Xposition Yposition Zposition Zrotation Xrotation Yrotation
    JOINT RightHip
    {
        OFFSET -0.08691974729299545 0.0 0.0
        CHANNELS 3 Zrotation Xrotation Yrotation
        JOINT RightKnee
        {
            OFFSET 0.0 0.0 -0.2998562455177307
            CHANNELS 3 Zrotation Xrotation Yrotation
            JOINT RightAnkle
            {
                OFFSET 0.0 0.0 -0.3094136714935303
                CHANNELS 3 Zrotation Xrotation Yrotation
                End Site
                {
                    OFFSET 0.0 -0.1237654834985733 0.0
                }
            }
        }
    }
    JOINT LeftHip
    {
        OFFSET 0.08691974729299545 0.0 0.0
        CHANNELS 3 Zrotation Xrotation Yrotation
        JOINT LeftKnee
        {
            OFFSET 0.0 0.0 -0.2998562455177307
            CHANNELS 3 Zrotation Xrotation Yrotation
            JOINT LeftAnkle
            {
                OFFSET 0.0 0.0 -0.3094136714935303
                CHANNELS 3 Zrotation Xrotation Yrotation
                End Site
                {
                    OFFSET 0.0 -0.1237654834985733 0.0
                }
            }
        }
    }
    JOINT Spine
    {
        OFFSET 0.0 0.0 0.17203514277935028
        CHANNELS 3 Zrotation Xrotation Yrotation
        JOINT Thorax
        {
            OFFSET 0.0 0.0 0.20128381252288818
            CHANNELS 3 Zrotation Xrotation Yrotation
            JOINT Neck
            {
                OFFSET 0.0 0.0 0.08335239440202713
                CHANNELS 3 Zrotation Xrotation Yrotation
                End Site
                {
                    OFFSET 0.0 0.0 0.03334096074104309
                }
            }
            JOINT LeftShoulder
            {
                OFFSET 0.11673979461193085 0.0 0.0
                CHANNELS 3 Zrotation Xrotation Yrotation
                JOINT LeftElbow
                {
                    OFFSET 0.19273105263710022 0.0 0.0
                    CHANNELS 3 Zrotation Xrotation Yrotation
                    JOINT LeftWrist
                    {
                        OFFSET 0.18076349794864655 0.0 0.0
                        CHANNELS 3 Zrotation Xrotation Yrotation
                        End Site
                        {
                            OFFSET 0.07230540364980698 0.0 0.0
                        }
                    }
                }
            }
            JOINT RightShoulder
            {
                OFFSET -0.11673979461193085 0.0 0.0
                CHANNELS 3 Zrotation Xrotation Yrotation
                JOINT RightElbow
                {
                    OFFSET -0.19273105263710022 0.0 0.0
                    CHANNELS 3 Zrotation Xrotation Yrotation
                    JOINT RightWrist
                    {
                        OFFSET -0.18076349794864655 0.0 0.0
                        CHANNELS 3 Zrotation Xrotation Yrotation
                        End Site
                        {
                            OFFSET -0.07230540364980698 0.0 0.0
                        }
                    }
                }
            }
        }
    }
}
MOTION
Frames: 9
Frame Time: 0.016666666666666666
0.0 0.0 0.5054848194122314 -151.90042550488243 -9.605608580917895 0.7549040441817118 3.4918956250177615 -14.945664528324372 -3.3089473482539185 -4.480720355599477 20.10622834855034 -6.643141228679611 0.0 3.975693351829396e-16 0.0 -5.619475883400873 26.909438251118143 10.584437143116292 0.21415606163302967 13.1691545917653 -3.270456667203511 0.0 0.0 1.5902773407317584e-15 -2.1337373328174167 13.942254860942668 6.619638104883531 -2.918050863657015 1.7623581839361358e-07 -2.1548313486092665e-07 -12.368218986763864 17.893241397033083 -7.808697633927379 -99.51048198924713 -25.574904724652527 -46.03445991078679 -101.66185425112361 -2.084841642352675e-06 5.678056135537103e-07 0.0 -3.975693351829397e-16 0.0 111.07341173691519 -35.97368416965078 88.25519835799953 122.77654543266752 -1.6587525213830011e-06 3.2693076350805275e-06 3.1805546814635168e-15 6.3611093629270335e-15 -1.7655625192200634e-31
0.0 0.0 0.5026906728744507 -152.32944545480953 -9.599169125988082 0.9401106118390484 3.4103088753660478 -15.138341139479783 -3.8244723919844903 -4.630621558021192 20.357094761363786 -6.495321893268406 0.0 0.0 1.5902773407317582e-15 -5.449127455896323 27.000143043296713 10.35641906295612 0.237298451009397 13.227706600500062 -3.2440116025193033 0.0 0.0 0.0 -2.077205759673548 14.051829272478681 6.436384183083344 -2.990958283037166 5.7631356726542824e-08 -7.912327199996415e-07 -12.984569180207266 18.29027132241534 -7.424105207844835 -100.97381176034717 -26.359077180528256 -47.2935702455685 -101.15382223587345 -1.2594433420351466e-06 -3.778536441725623e-06 -3.1805546814635164e-15 -6.361109362927033e-15 -7.951386703658792e-16 110.19097126733652 -36.96790501757779 88.85645645901806 119.76502567397888 -9.892249988408722e-06 1.6764582242636985e-06 0.0 6.3611093629270335e-15 0.0
0.0 0.0 0.49964070320129395 -152.52229987518302 -9.574005822911955 0.9929476003018286 3.3664084777421763 -15.326460932245682 -3.892713303230225 -4.645023844179604 20.47948896740616 -6.480760426567284 3.1805546814635168e-15 -4.4139062980501586e-32 -1.5902773407317584e-15 -5.340765396313674 26.95608750468909 10.328111755804448 0.2626445478164712 13.275752992784259 -3.2661828527208563 -4.4139062980501586e-32 3.1805546814635168e-15 1.5902773407317584e-15 -2.0520745220252925 14.077188302733454 6.370416317128744 -3.10290100360878 -6.516679493234097e-07 -9.936147340218856e-07 -13.083869767676076 18.383318076381 -7.370321397644024 -102.13691046983996 -27.00415198865136 -48.007135518106296 -100.72049163979409 1.1135759253231876e-06 9.330467192761104e-07 0.0 0.0 0.0 109.42903151090208 -37.52974116722268 88.9101577888305 117.91806241974423 -5.951681834643642e-07 -2.966707062725527e-06 1.7655625192200634e-31 -6.361109362927035e-15 3.1805546814635176e-15
0.0 0.0 0.4963173270225525 -152.73912497181686 -9.535768002732079 1.0542845512043357 3.354956944931322 -15.465959927115831 -4.047643420830337 -4.688252071395474 20.60095623416772 -6.447600380693006 0.0 0.0 1.5902773407317584e-15 -5.254873865153353 26.912732720144533 10.27029337147261 0.2905883493829313 13.28004874272083 -3.2205775908563656 -3.1805546814635168e-15 -4.4139062980501586e-32 1.5902773407317584e-15 -2.017681267584094 14.08344423666567 6.282602976667303 -3.1414900842186055 -1.119673726457239e-09 -2.4913496412226917e-07 -13.435724514171262 18.496613334199246 -7.179701097572689 -103.78765814351969 -27.7563543455513 -48.8874857756125 -100.10138563779076 5.156257778584031e-06 -9.096817959658595e-07 0.0 -3.975693351829396e-16 0.0 108.43375338689061 -37.98416441526802 88.80192013282492 115.78731557929795 -1.5815738064938876e-06 -1.3140144385542667e-08 3.1805546814635168e-15 6.3611093629270335e-15 -3.1805546814635168e-15
0.0 0.0 0.4933852255344391 -152.95884194245744 -9.50144861014792 1.1030363773839296 3.320036963216591 -15.601079345195766 -4.15112122913528 -4.733283429162664 20.71991106206559 -6.433185646945238 -2.758691436281349e-33 1.987846675914698e-16 1.5902773407317584e-15 -5.148028045610834 26.86002483286048 10.257082029903252 0.32044852306221533 13.298301988477453 -3.244866078318862 0.0 0.0 1.5902773407317584e-15 -1.9979315801945001 14.111611119809703 6.180124406716122 -3.1767010269543414 3.864607972792869e-07 5.379851459825333e-07 -13.713080960631968 18.538947521064372 -6.951384327890125 -105.64718106329136 -28.559899552008535 -49.847505797756284 -99.02286663394014 2.505348672024476e-06 1.0729490200888759e-06 -1.5902773407317584e-15 -6.3611093629270335e-15 -1.5902773407317584e-15 107.32576430562709 -38.43849677354116 88.55267268582271 113.86869701916363 -4.5426965084911726e-06 -1.4576605718305309e-06 0.0 0.0 0.0
0.0 0.0 0.4883762300014496 -153.304698591369 -9.389330028295184 1.151166850276051 3.232903114646191 -15.54025060960552 -4.611532593658794 -4.807763740309367 20.439227830710305 -5.898405813042463 -3.1805546814635164e-15 0.0 0.0 -5.032511548612562 26.697066583065357 10.277597697129618 0.3440610337060236 13.215072115844684 -3.19078848133324 0.0 0.0 0.0 -1.9664729014474873 14.031418058620751 6.037506274688361 -3.3732360228133627 1.999003423338175e-07 -7.868474430016274e-08 -14.052368179494637 18.52663723561284 -6.631781936998607 -108.77590762564314 -29.752116889778005 -51.31452586978695 -96.98442568803301 2.7734290009873005e-06 1.5764913658168823e-07 -1.5902773407317584e-15 -6.3611093629270335e-15 -8.827812596100317e-32 104.62697173542408 -39.62430205144884 87.38689604913273 110.14354606335519 2.1473369768239924e-06 -1.606581627500693e-06 -1.7655625192200634e-31 -6.3611093629270335e-15 -3.1805546814635168e-15
0.0 0.0 0.48608729243278503 -153.44335598156866 -9.378638020302166 1.1934440857542223 3.165826634097118 -15.440940173338056 -4.81832417905454 -4.835913486825176 20.25509741297287 -5.644541084923954 3.1805546814635168e-15 -4.4139062980501586e-32 -1.5902773407317584e-15 -4.987629191863659 26.589511912418377 10.400418453542011 0.36565007426283846 13.283780316234294 -3.325477468681343 0.0 0.0 0.0 -1.9704443431167766 14.029237365987683 5.98225988731566 -3.4869265242436946 -4.776333772786739e-08 -8.489392311361384e-07 -14.36364420591043 18.4837505861753 -6.470212600758511 -109.80945089360716 -30.088172895015706 -51.44693313583643 -95.72005134825761 3.2709994797908133e-06 9.794220047689891e-07 0.0 0.0 -4.770832022195275e-15 102.98142326710624 -40.38134115299235 86.46855409887353 108.19532348205455 3.8717433215931285e-07 -9.159225813586878e-07 -1.5902773407317582e-15 6.620859447075238e-32 -4.770832022195274e-15
0.0 0.0 0.4842057228088379 -153.6201373714187 -9.357958023621444 1.2526309633072956 3.07986070930958 -15.303424135665054 -5.069988124325645 -4.86787758676574 20.10081764735757 -5.44014110079409 3.1805546814635168e-15 1.987846675914698e-16 -5.517382872562698e-33 -4.9133376628593695 26.54835520886127 10.389312102302537 0.3707303521776881 13.207555115956188 -3.2794042955728053 0.0 3.1805546814635168e-15 0.0 -1.9536271627251003 13.994548917165975 5.834196874112878 -3.597610147789631 2.8621331502155103e-07 1.785465978832872e-07 -14.692287664692898 18.514458562349645 -6.1489840221026455 -110.64228576423733 -30.391346685737542 -51.55175828888977 -94.21510279319101 5.5998184300700245e-06 3.4266924138247565e-06 -1.5902773407317582e-15 -7.951386703658791e-16 -1.5902773407317582e-15 101.3672846826809 -41.035044426736505 85.40899757658771 106.51805763434572 3.6061562369985497e-06 -1.8163913975084253e-06 3.1805546814635164e-15 -6.620859447075238e-32 -2.385416011097637e-15
0.0 0.0 0.48269954323768616 -153.7557455168841 -9.38468298082472 1.3082884316156747 3.0092119496209992 -15.157171332275368 -5.252380218447865 -4.883928994120843 19.911351619944345 -5.224578927602726 0.0 3.975693351829396e-16 0.0 -4.867666676136292 26.4602234836466 10.509579242153373 0.3945037929728953 13.281022127520423 -3.371879775179514 0.0 0.0 0.0 -1.9607876766214989 14.020146618124501 5.789477171465198 -3.6538600716817893 -7.558018620036288e-08 8.352506649402266e-07 -15.056828844792136 18.451316807128954 -5.938866415741017 -111.1838928596803 -30.6642755160082 -51.4858209189466 -92.98704675767439 4.542191346970827e-06 -8.84454346272338e-07 1.5902773407317584e-15 -7.951386703658792e-16 -3.1805546814635168e-15 99.71146751908147 -41.79664243125886 84.28216145045543 105.08204862281846 6.490087754022307e-07 -1.0106023820193929e-06 4.770832022195275e-15 6.3611093629270335e-15 -3.1805546814635168e-15
